<svg width="95" height="107" fill="none" xmlns="http://www.w3.org/2000/svg">
  <circle cx="47.5" cy="59.5" r="47.5" fill="url(#a)" />
  <g clip-path="url(#b)" fill="#fff">
    <path d="M47 18.667a8 8 0 0 0-8 8 8.008 8.008 0 0 0 8 8 8 8 0 1 0 0-16ZM47 32a5.333 5.333 0 1 1 0-10.666A5.333 5.333 0 0 1 47 32Z" />
    <path d="M61.294 38.2c-.44-.44-.904-.857-1.39-1.247l.013-.038A32.638 32.638 0 0 0 47.775.248a1.333 1.333 0 0 0-1.55 0 32.639 32.639 0 0 0-12.142 36.667l.013.038c-7.332 5.886-8.505 16.6-2.62 23.933.39.486.807.95 1.248 1.39a1.333 1.333 0 0 0 2.263-.754l1.006-7.045a1.333 1.333 0 0 1 1.32-1.144h4.06L40.36 58.4a1.333 1.333 0 0 0 1.307 1.6h10.666a1.333 1.333 0 0 0 1.307-1.6l-1.013-5.067h4.061c.663 0 1.225.489 1.319 1.146l1.006 7.044a1.333 1.333 0 0 0 2.263.753c6.653-6.643 6.661-17.422.018-24.076ZM47 2.99A30.085 30.085 0 0 1 54.883 12H39.117A30.084 30.084 0 0 1 47 2.99Zm-9.688 47.677a4.019 4.019 0 0 0-3.959 3.434l-.577 4.044a14.329 14.329 0 0 1-2.332-9.116h-.001a14.377 14.377 0 0 1 4.533-9.346l3.528 10.984h-1.192Zm5.981 6.666.8-4h5.814l.8 4h-7.414Zm-1.988-6.666L36.916 37.01l-.293-.914a29.98 29.98 0 0 1 1.153-21.43h18.448a29.979 29.979 0 0 1 1.153 21.43l-.293.914-4.39 13.656H41.306Zm19.919 7.478-.577-4.044a4.019 4.019 0 0 0-3.959-3.434h-1.192l3.53-10.984a14.377 14.377 0 0 1 4.53 9.346 14.327 14.327 0 0 1-2.332 9.116Z" />
    <path d="M41.667 62.56v4.347a9.245 9.245 0 0 0-9.174 2.242 10.7 10.7 0 0 0-8.16-3.816c-.97 0-1.936.135-2.87.4a13.265 13.265 0 0 0-13.13-11.066H7v2.666h1.333a10.605 10.605 0 0 1 10.583 9.523 10.687 10.687 0 0 0-3.295 2.99A13.266 13.266 0 0 0 7 66.667v2.667c5.888.007 10.66 4.779 10.667 10.667h2.666a13.247 13.247 0 0 0-2.8-8.152 8.026 8.026 0 0 1 3.315-3.048c.013 0 .028 0 .041-.013A7.91 7.91 0 0 1 24.333 68a8.017 8.017 0 0 1 6.5 3.376A9.96 9.96 0 0 0 29.667 76h2.666a7.214 7.214 0 0 1 1.11-3.852h-.007c.019-.025.044-.044.063-.07a6.644 6.644 0 0 1 8.168-2.345v3.494h2.666V62.56h-2.666ZM85.666 57.333H87v-2.666h-1.334a13.266 13.266 0 0 0-13.129 11.066 10.5 10.5 0 0 0-2.87-.4 10.7 10.7 0 0 0-8.16 3.812 9.245 9.245 0 0 0-9.174-2.242v-4.347h-2.666v10.667h2.666v-3.49a6.644 6.644 0 0 1 8.168 2.343c.019.027.044.045.063.07h-.008A7.214 7.214 0 0 1 61.666 76h2.667a9.959 9.959 0 0 0-1.166-4.624 8.017 8.017 0 0 1 6.5-3.376c1.192 0 2.37.27 3.444.79.013.006.027.007.04.013a8.027 8.027 0 0 1 3.322 3.045A13.246 13.246 0 0 0 73.667 80h2.666C76.34 74.112 81.111 69.34 87 69.333v-2.666a13.27 13.27 0 0 0-8.622 3.18 10.687 10.687 0 0 0-3.294-2.991 10.605 10.605 0 0 1 10.582-9.523Z" />
  </g>
  <defs>
    <linearGradient id="a" x1="-16" y1="-1.5" x2="47.5" y2="107" gradientUnits="userSpaceOnUse">
      <stop stop-color="#4A00E0" />
      <stop offset="1" stop-color="#1C2056" />
    </linearGradient>
    <clipPath id="b">
      <path fill="#fff" transform="translate(7)" d="M0 0h80v80H0z" />
    </clipPath>
  </defs>
</svg>