<svg width="56" height="56" fill="none" xmlns="http://www.w3.org/2000/svg"><g clip-path="url(#a)" fill="#3F3881"><path d="M29.312 13.1a6.55 6.55 0 1 0 0-13.1 6.55 6.55 0 0 0 0 13.1ZM29.312 56a3.93 3.93 0 1 0 0-7.86 3.93 3.93 0 0 0 0 7.86ZM13.217 19.11a5.895 5.895 0 1 0 0-11.79 5.895 5.895 0 0 0 0 11.79ZM45.407 48.676a3.275 3.275 0 1 0 0-6.55 3.275 3.275 0 0 0 0 6.55ZM6.55 34.55a5.239 5.239 0 1 0 0-10.478 5.239 5.239 0 0 0 0 10.478ZM52.072 31.927a2.618 2.618 0 1 0 0-5.236 2.618 2.618 0 0 0 0 5.236ZM9.976 42.165a4.58 4.58 0 0 0 0 6.482 4.58 4.58 0 0 0 6.482 0 4.58 4.58 0 0 0 0-6.482c-1.789-1.794-4.69-1.81-6.482 0ZM45.405 15.178a1.964 1.964 0 1 0 0-3.927 1.964 1.964 0 0 0 0 3.927Z"/></g><defs><clipPath id="a"><path fill="#fff" d="M0 0h56v56H0z"/></clipPath></defs></svg>