<svg width="100" height="100" fill="none" xmlns="http://www.w3.org/2000/svg"><g clip-path="url(#a)" fill="#F1EBFF"><path d="M87.228 24.295 63.79.858A2.933 2.933 0 0 0 61.719 0H20.703c-4.846 0-8.789 3.943-8.789 8.79v82.42c0 4.847 3.943 8.79 8.79 8.79h58.593c4.846 0 8.789-3.943 8.789-8.79V26.368c0-.799-.335-1.549-.858-2.072Zm-22.58-14.293 13.435 13.435H67.578a2.933 2.933 0 0 1-2.93-2.93V10.003Zm14.649 84.139H20.703a2.933 2.933 0 0 1-2.93-2.93V8.789a2.933 2.933 0 0 1 2.93-2.93H58.79v14.649c0 4.846 3.943 8.789 8.79 8.789h14.648V91.21a2.933 2.933 0 0 1-2.93 2.93Z"/><path d="M67.578 41.406H32.422a2.93 2.93 0 0 0 0 5.86h35.156a2.93 2.93 0 0 0 0-5.86ZM67.578 53.125H32.422a2.93 2.93 0 0 0 0 5.86h35.156a2.93 2.93 0 0 0 0-5.86ZM67.578 64.844H32.422a2.93 2.93 0 0 0 0 5.86h35.156a2.93 2.93 0 0 0 0-5.86ZM55.86 76.563H32.421a2.93 2.93 0 0 0 0 5.859h23.437a2.93 2.93 0 0 0 0-5.86Z"/></g><defs><clipPath id="a"><path fill="#fff" d="M0 0h100v100H0z"/></clipPath></defs></svg>