<svg width="100" height="100" fill="none" xmlns="http://www.w3.org/2000/svg"><g clip-path="url(#a)" fill="#F1EBFF"><path d="M4.153 0 .011 4.142l8.3 8.3A44.182 44.182 0 0 0 6.504 24.95a44.322 44.322 0 0 0 14.789 33.028L33.81 69.132l-.887 16.882 13.92 13.92L57.587 89.19 71.7 94.755l4.128-4.128a12.204 12.204 0 0 0 3.263 5.826c4.407 4.408 15.829 3.552 18.074 3.336l2.403-.231.232-2.404c.008-.08.19-1.994.19-4.55 0-6.635-1.187-11.185-3.526-13.524a12.208 12.208 0 0 0-5.831-3.257l4.132-4.133-5.565-14.114 10.744-10.744-13.92-13.92-16.882.887-11.156-12.52C46.6 8.528 28.81 3.482 12.454 8.3L4.153 0Zm9.818 13.96a38.349 38.349 0 0 1 18.325-.888l-19.22 19.221a38.333 38.333 0 0 1 .896-18.333Zm24.94 69.757.503-9.592L52.61 85.883l-5.766 5.766-7.933-7.933Zm53.411-.495c.302.302 1.81 2.175 1.81 9.381 0 .538-.01 1.046-.023 1.506-4.275.126-9.427-.35-10.875-1.798a6.385 6.385 0 0 1-1.882-4.544c0-1.715.667-3.328 1.879-4.542l.006-.005a6.434 6.434 0 0 1 9.085.002Zm-22.047 4.674-8.172-3.223 22.581-22.58 3.222 8.172-17.63 17.63Zm13.452-48.997 7.933 7.933-5.767 5.766-11.757-13.195 9.591-.504ZM53.614 25.18l28.13 31.568-24.986 24.986-31.566-28.127a38.427 38.427 0 0 1-10.268-14.877l23.81-23.81a38.328 38.328 0 0 1 14.88 10.26Z"/><path d="m37.087 32.946-4.143 4.142 2.708 2.708a8.242 8.242 0 0 0-2.02 5.425c0 2.219.864 4.304 2.432 5.873a8.251 8.251 0 0 0 5.873 2.433 8.251 8.251 0 0 0 5.873-2.433l4.348-4.347a2.668 2.668 0 0 1 3.768 0 2.668 2.668 0 0 1 0 3.768l-9.368 9.368 4.142 4.143 4.591-4.59 2.69 2.69 4.143-4.143-2.69-2.69.635-.636a8.496 8.496 0 0 0 2.492-6.026c0-2.183-.83-4.365-2.492-6.027-3.323-3.323-8.73-3.323-12.054 0l-4.347 4.348a2.45 2.45 0 0 1-3.461 0 2.45 2.45 0 0 1 0-3.461l7.34-7.34-4.143-4.143-3.627 3.628-2.69-2.69Z"/></g><defs><clipPath id="a"><path fill="#fff" transform="rotate(-90 50 50)" d="M0 0h100v100H0z"/></clipPath></defs></svg>