<svg width="100" height="100" fill="none" xmlns="http://www.w3.org/2000/svg"><g clip-path="url(#a)"><path d="m99.063 6.298-.425-2.337a3.226 3.226 0 0 0-2.597-2.597L93.704.939A58.312 58.312 0 0 0 63.96 3.301C51.572 7.663 43.447 14.84 36.29 23.733l-3.78-1.298a17.763 17.763 0 0 0-17.72 3.659L2.85 36.947c-5.763 5.24-2.22 14.855 5.568 15.097l10.56.33c-.543 3.279.496 6.7 2.935 9.138L38.49 78.09a10.49 10.49 0 0 0 9.14 2.935l.328 10.56c.243 7.81 9.875 11.312 15.097 5.568l10.854-11.94a17.765 17.765 0 0 0 3.658-17.72l-1.297-3.78c8.66-6.971 15.96-14.972 20.431-27.67a58.311 58.311 0 0 0 2.362-29.745ZM7.19 41.721l11.939-10.854a11.316 11.316 0 0 1 11.285-2.33l1.744.6a138.255 138.255 0 0 0-10.484 16.865L8.62 45.595c-2.008-.062-2.916-2.522-1.43-3.874Zm64.275 27.867c1.34 3.906.448 8.23-2.33 11.285L58.28 92.813c-1.35 1.486-3.812.58-3.874-1.43L54 78.329a137.994 137.994 0 0 0 16.866-10.484l.599 1.744Zm3.904-13.515a131.446 131.446 0 0 1-27.684 18.23 4.038 4.038 0 0 1-4.633-.776c.02 0 .15.15-16.577-16.578a4.038 4.038 0 0 1-.777-4.632c.827-1.685 1.692-3.35 2.589-4.997l17.5 17.5a3.226 3.226 0 1 0 4.561-4.563l-18.72-18.72a131.214 131.214 0 0 1 12.566-17.212C55.868 10.8 74.225 3.962 92.69 7.312c3.259 17.962-3.016 36.457-17.32 48.761ZM57.033 23.304c-8.743 8.743-2.497 23.732 9.832 23.732 12.319 0 18.586-14.979 9.833-23.732-5.422-5.421-14.243-5.421-19.665 0Zm15.103 15.103c-2.906 2.906-7.635 2.906-10.54 0-2.907-2.906-2.907-7.634 0-10.54 2.905-2.907 7.634-2.907 10.54 0 2.906 2.905 2.906 7.634 0 10.54ZM4.954 75.447a3.226 3.226 0 0 1 0-4.563l4.177-4.177a3.226 3.226 0 0 1 4.563 4.562l-4.178 4.178a3.226 3.226 0 0 1-4.562 0Zm28.502 11.022a3.226 3.226 0 0 1 0 4.562l-4.178 4.178c-.63.63-1.455.945-2.28.945-2.849 0-4.32-3.47-2.282-5.507l4.177-4.178a3.226 3.226 0 0 1 4.563 0Zm-7.047-8.314L12.225 92.34a3.226 3.226 0 1 1-4.562-4.562l14.184-14.184a3.226 3.226 0 0 1 4.562 4.562Z" fill="#F1EBFF"/></g><defs><clipPath id="a"><path fill="#fff" d="M0 0h100v100H0z"/></clipPath></defs></svg>